<?xml version="1.0" encoding="utf-8"?>
<!-- Generator: Adobe Illustrator 25.4.1, SVG Export Plug-In . SVG Version: 6.00 Build 0)  -->
<svg version="1.1" id="Layer_1" xmlns="http://www.w3.org/2000/svg" xmlns:xlink="http://www.w3.org/1999/xlink" x="0px" y="0px"
	 viewBox="0 0 220 160" style="enable-background:new 0 0 220 160;" xml:space="preserve">
<style type="text/css">
	.st0{fill:#F1F1F5;}
	.st1{opacity:0.3;}
	.st2{fill:#0000D8;}
	.st3{fill:#0000D8;fill-opacity:0;}
	.st4{fill:#FFD400;}
</style>
<g>
	<rect class="st0" width="220" height="160"/>
</g>
<g class="st1">
	<path class="st2" d="M125.41,80.04c-1.72,3.11-4.41,5.64-7.7,7.16c0.07,0.29,0.07,0.58,0.07,0.87c0,4.12-3.44,7.53-7.78,7.53
		s-7.78-3.4-7.78-7.53c0-0.29,0-0.58,0.07-0.87c-5.83-2.75-9.8-8.54-9.8-15.27v16.14c0,9.33,7.85,16.93,17.5,16.93
		s17.5-7.6,17.5-16.93C127.5,85.17,126.75,82.42,125.41,80.04z"/>
	<path class="st2" d="M102.22,55v1.74c-5.76,2.82-9.72,8.54-9.72,15.2V55H102.22z"/>
	<path class="st3" d="M125.41,80.04c-1.72,3.11-4.41,5.64-7.7,7.16c-0.45-3.76-3.74-6.66-7.7-6.66s-7.25,2.89-7.7,6.66
		c-5.83-2.75-9.8-8.54-9.8-15.27c0-6.66,3.96-12.37,9.72-15.2v16.14c2.32-1.16,5.01-1.74,7.78-1.74
		C116.66,71.14,122.49,74.68,125.41,80.04z"/>
	<path class="st4" d="M117.78,88.07c0,4.12-3.44,7.53-7.78,7.53s-7.78-3.4-7.78-7.53c0-0.29,0-0.58,0.07-0.87
		c2.32,1.09,4.94,1.74,7.7,1.74c2.77,0,5.38-0.65,7.7-1.74C117.78,87.49,117.78,87.78,117.78,88.07z"/>
	<path class="st2" d="M117.7,87.2c-2.32,1.09-4.94,1.74-7.7,1.74c-2.77,0-5.38-0.65-7.7-1.74c0.45-3.76,3.74-6.66,7.7-6.66
		S117.25,83.44,117.7,87.2z"/>
	<path class="st2" d="M127.5,71.93c0,2.89-0.75,5.64-2.09,8.03c-2.99-5.28-8.75-8.9-15.41-8.9c-2.77,0-5.46,0.65-7.78,1.74V56.74
		c2.32-1.09,5.01-1.74,7.78-1.74C119.72,55,127.5,62.6,127.5,71.93z"/>
</g>
</svg>
